<svg width="105" height="58" viewBox="0 0 105 58" fill="none" xmlns="http://www.w3.org/2000/svg">
<g clip-path="url(#clip0_46_4201)">
<path d="M52.7271 8.97607L55.2999 16.8943H63.6245L56.8894 21.7868L59.4622 29.7033L52.7271 24.8108L45.9919 29.7033L48.5647 21.7868L41.8296 16.8943H50.1542L52.7271 8.97607Z" fill="#EFB65B"/>
<path d="M11.3469 14.8949C11.3469 19.6135 13.1276 23.9153 16.0603 27.1632C7.00723 26.049 0 18.3323 0 8.97607H12.3251C11.6931 10.8325 11.3469 12.8215 11.3469 14.8932V14.8949Z" fill="white"/>
<path d="M48.5321 0.345215C47.2268 1.44736 45.9834 2.61322 44.8038 3.84108C43.2504 5.45814 41.8056 7.18196 40.4847 8.99878C35.4545 15.9182 32.1911 24.2084 31.3714 33.2029C31.2353 34.6856 31.1664 36.189 31.1664 37.7062C31.1664 44.8857 32.7163 51.7052 35.4958 57.8445H17.121C16.2513 54.1988 15.7915 50.3964 15.7915 46.4872C15.7915 40.4495 16.8868 34.6684 18.8896 29.3299C19.1444 28.648 19.4148 27.9712 19.7007 27.3047C22.7471 20.1701 27.4432 13.9102 33.3104 8.99878C34.4849 8.01373 35.7093 7.0838 36.9751 6.21069C39.064 4.77446 41.27 3.49149 43.5776 2.38763C45.1826 1.61957 46.8376 0.935896 48.5321 0.345215Z" fill="white"/>
<path d="M39.8076 47.1495V47.0875C39.8076 41.1497 44.5365 36.3398 50.848 36.3398C57.1595 36.3398 61.8264 41.0963 61.8264 47.0341V47.0961C61.8264 53.0339 57.0975 57.8437 50.786 57.8437C44.4745 57.8437 39.8076 53.0873 39.8076 47.1495ZM56.0453 47.1495V47.0875C56.0453 44.1014 53.9151 41.5079 50.786 41.5079C47.657 41.5079 45.6145 44.048 45.6145 47.0341V47.0961C45.6145 50.0822 47.7448 52.6757 50.8394 52.6757C53.934 52.6757 56.0367 50.1356 56.0367 47.1495H56.0453Z" fill="white"/>
<path d="M62.4019 47.15V47.088C62.4019 41.1502 67.1308 36.3403 73.4423 36.3403C79.7538 36.3403 84.4207 41.0968 84.4207 47.0346V47.0966C84.4207 53.0344 79.6918 57.8442 73.3803 57.8442C67.0688 57.8442 62.4019 53.0878 62.4019 47.15ZM78.6396 47.15V47.088C78.6396 44.1018 76.5093 41.5084 73.3803 41.5084C70.2512 41.5084 68.2088 44.0485 68.2088 47.0346V47.0966C68.2088 50.0827 70.339 52.6762 73.4336 52.6762C76.5283 52.6762 78.6309 50.1361 78.6309 47.15H78.6396Z" fill="white"/>
<path d="M85.7031 36.75H90.9883L99.3956 47.6767V36.75H104.999V57.4238H100.04L91.3068 46.0855V57.4238H85.7031V36.75Z" fill="white"/>
<path d="M66.876 9.02946H72.8603L76.4233 20.9946L80.3652 8.97607H85.2439L89.1858 20.9946L92.7488 9.02946H98.6178L91.7845 29.8548H86.8524L82.7331 17.9534L78.65 29.8548H73.7179L66.876 9.02946Z" fill="white"/>
<path d="M99.3086 8.97607H105.002V29.7033H99.3086V8.97607Z" fill="white"/>
</g>
<defs>
<clipPath id="clip0_46_4201">
<rect width="105" height="57.8437" fill="white"/>
</clipPath>
</defs>
</svg>
